<svg xmlns="http://www.w3.org/2000/svg" viewBox="0 0 64 64" role="img" aria-label="RafaCyber RC">
  <defs>
    <linearGradient id="bg" x1="8" y1="8" x2="56" y2="56" gradientUnits="userSpaceOnUse">
      <stop offset="0%" stop-color="#06111d"/>
      <stop offset="100%" stop-color="#0f2740"/>
    </linearGradient>
    <linearGradient id="accent" x1="12" y1="10" x2="52" y2="54" gradientUnits="userSpaceOnUse">
      <stop offset="0%" stop-color="#70f0ff"/>
      <stop offset="100%" stop-color="#2e8bff"/>
    </linearGradient>
  </defs>
  <rect width="64" height="64" rx="16" fill="url(#bg)"/>
  <path d="M32 11l14 6v11c0 10.3-6.2 18.7-14 23-7.8-4.3-14-12.7-14-23V17l14-6z" fill="url(#accent)"/>
  <path d="M32 16l9 3.8V28c0 6.7-3.6 12.7-9 16.2-5.4-3.5-9-9.5-9-16.2v-8.2L32 16z" fill="#071727"/>
  <path d="M32 22.5c-2.6 0-4.7 2.1-4.7 4.7V30h-1.2c-.7 0-1.3.6-1.3 1.3v7.7c0 .7.6 1.3 1.3 1.3h11.8c.7 0 1.3-.6 1.3-1.3v-7.7c0-.7-.6-1.3-1.3-1.3H36.7v-2.8c0-2.6-2.1-4.7-4.7-4.7zm0 2.2c1.4 0 2.5 1.1 2.5 2.5V30h-5v-2.8c0-1.4 1.1-2.5 2.5-2.5zm0 8.7c.8 0 1.4.6 1.4 1.4s-.6 1.4-1.4 1.4-1.4-.6-1.4-1.4.6-1.4 1.4-1.4z" fill="#eaf7ff"/>
  <path d="M20 21.5h6M38 21.5h6M18.5 43h5.5M40 43h5.5" fill="none" stroke="#70f0ff" stroke-linecap="round" stroke-width="1.4" stroke-opacity=".9"/>
  <path d="M18.5 21.5l-2.5-2.5M45.5 21.5l2.5-2.5M18.5 43l-2.5 2.5M45.5 43l2.5 2.5" fill="none" stroke="#2e8bff" stroke-linecap="round" stroke-width="1.2" stroke-opacity=".75"/>
  <text x="32" y="38.5" text-anchor="middle" fill="#eaf7ff" font-family="Arial, Helvetica, sans-serif" font-size="18" font-weight="700" letter-spacing="-1.1">RC</text>
</svg>
